:FULLY-SPECIFIED
:FORCE-ALL-JOINTS-BE-3DOF
:DEGREES
127
root 0.75186 17.2442 31.4994 1.16887 -5.96348 -3.8083
lfemur -10.0167 13.6334 -8.64097
ltibia 108.301 0 0
lfoot 22.4595 -6.34868 0
ltoes -9.28816 0 0
rfemur -17.1064 4.21125 31.2265
rtibia 41.1492 0 0
rfoot -15.2679 -7.32251 0
rtoes 0.514304 0 0
lowerback 17.9689 -1.99653 5.36527
upperback 1.68308 -1.37433 2.24848
thorax -8.33651 -0.809333 -0.27405
lowerneck -5.94179 3.10218 0.681529
upperneck -10.4651 3.75496 -4.95964
head -2.18305 1.93937 -1.69472
lclavicle -6.4605e-15 4.77083e-15 0
lhumerus -49.9002 -15.5595 94.0621
lradius 104.998 0 0
lwrist 30.607 0 0
lhand -38.1052 8.5552 0
lfingers 7.12502 0 0
lthumb -11.1408 38.2395 0
rclavicle -6.4605e-15 4.77083e-15 0
rhumerus -30.5887 14.7155 -85.3507
rradius 94.3893 0 0
rwrist -2.89929 0 0
rhand -43.8452 38.6866 0
rfingers 7.12502 0 0
rthumb -16.6722 9.38262 0
128
root 0.739429 17.2017 31.9632 1.65118 -4.62332 -3.24898
lfemur -14.9191 12.5461 -9.84407
ltibia 110.958 0 0
lfoot 21.6259 -6.92433 0
ltoes -10.3916 0 0
rfemur -16.3644 3.03684 30.5169
rtibia 41.7465 0 0
rfoot -16.5946 -7.69637 0
rtoes -3.0728 0 0
lowerback 17.5727 -2.25587 4.92855
upperback 1.61439 -1.8397 2.08543
thorax -8.20569 -1.0189 -0.0988809
lowerneck -5.3754 3.03216 0.946434
upperneck -11.3153 3.60745 -5.13341
head -2.56319 1.87651 -1.83076
lclavicle -6.36111e-15 2.3059e-14 0
lhumerus -51.0349 -14.5883 93.9371
lradius 104.819 0 0
lwrist 32.0435 0 0
lhand -38.1987 10.8314 0
lfingers 7.12502 0 0
lthumb -11.2309 40.5108 0
rclavicle -6.36111e-15 2.3059e-14 0
rhumerus -28.0606 15.4446 -85.1995
rradius 95.0819 0 0
rwrist -2.54098 0 0
rhand -43.8568 38.7719 0
rfingers 7.12502 0 0
rthumb -16.6834 9.46885 0
129
root 0.723366 17.1646 32.4103 2.40397 -2.15433 -3.10382
lfemur -20.866 10.2248 -10.8126
ltibia 113.381 0 0
lfoot 21.4554 -7.27152 0
ltoes -10.5402 0 0
rfemur -15.9432 1.18564 30.3746
rtibia 42.1308 0 0
rfoot -17.7148 -8.27495 0
rtoes -6.29482 0 0
lowerback 17.1868 -2.81268 5.13313
upperback 1.32027 -2.53961 2.14985
thorax -8.3485 -1.36485 0.0229309
lowerneck -5.16696 2.77478 0.844607
upperneck -11.6382 3.25087 -5.15844
head -2.72252 1.71049 -1.83333
lclavicle 3.72721e-14 -3.65764e-14 0
lhumerus -52.096 -13.9316 94.1483
lradius 104.675 0 0
lwrist 33.6858 0 0
lhand -38.3452 12.2039 0
lfingers 7.12502 0 0
lthumb -11.3722 41.8755 0
rclavicle 3.72721e-14 -3.65764e-14 0
rhumerus -25.9763 15.7538 -84.7773
rradius 95.8975 0 0
rwrist -2.07642 0 0
rhand -43.9041 38.6405 0
rfingers 7.12502 0 0
rthumb -16.7289 9.34125 0
130
root 0.721235 17.1663 32.9674 1.69211 -5.222 -3.67514
lfemur -21.1112 13.3575 -9.68687
ltibia 113.835 0 0
lfoot 19.5234 -8.18804 0
ltoes -10.5292 0 0
rfemur -12.7204 3.13934 30.8355
rtibia 41.9764 0 0
rfoot -18.6251 -7.69601 0
rtoes -10.4581 0 0
lowerback 17.6697 -1.50752 5.00203
upperback 1.69569 -0.826899 2.21259
thorax -8.12656 -0.531254 -0.252415
lowerneck -4.88305 2.51182 0.888913
upperneck -11.8217 2.87869 -5.29043
head -2.84643 1.53322 -1.89373
lclavicle -6.95746e-16 2.74323e-14 0
lhumerus -53.2695 -13.3422 94.3897
lradius 104.714 0 0
lwrist 35.3096 0 0
lhand -38.1354 12.8785 0
lfingers 7.12502 0 0
lthumb -11.1699 42.5612 0
rclavicle -6.95746e-16 2.74323e-14 0
rhumerus -24.5982 15.7018 -84.4914
rradius 96.823 0 0
rwrist -1.42207 0 0
rhand -43.8125 38.3198 0
rfingers 7.12502 0 0
rthumb -16.6407 9.01314 0
131
root 0.702442 17.1669 33.4485 1.78057 -5.29347 -3.99965
lfemur -24.6394 13.5877 -9.54649
ltibia 114.622 0 0
lfoot 18.2727 -8.8045 0
ltoes -12.8727 0 0
rfemur -10.8136 3.31091 31.1969
rtibia 41.6173 0 0
rfoot -18.654 -7.53622 0
rtoes -11.921 0 0
lowerback 18.0877 -1.16935 4.90673
upperback 1.57726 -0.352183 2.35826
thorax -8.46498 -0.30416 -0.149004
lowerneck -5.15145 2.30116 1.06629
upperneck -11.48 2.59305 -5.46056
head -2.68932 1.38138 -1.96654
lclavicle -2.85256e-14 2.34566e-14 0
lhumerus -54.292 -12.7567 94.6028
lradius 104.808 0 0
lwrist 36.5292 0 0
lhand -37.996 12.7205 0
lfingers 7.12502 0 0
lthumb -11.0354 42.4104 0
rclavicle -2.85256e-14 2.34566e-14 0
rhumerus -23.4901 15.6012 -84.2902
rradius 97.8843 0 0
rwrist -0.943379 0 0
rhand -43.7962 38.7057 0
rfingers 7.12502 0 0
rthumb -16.625 9.39775 0
132
root 0.696905 17.1883 33.9543 1.86569 -5.15782 -4.2605
lfemur -27.8694 13.1311 -9.89644
ltibia 114.68 0 0
lfoot 17.2032 -9.20489 0
ltoes -15.552 0 0
rfemur -8.64651 2.97597 31.3619
rtibia 40.9581 0 0
rfoot -17.9769 -6.88895 0
rtoes -11.8048 0 0
lowerback 18.2134 -0.907355 5.09271
upperback 1.57092 0.0416503 2.37971
thorax -8.52576 -0.122969 -0.328494
lowerneck -6.18442 2.09418 1.2168
upperneck -10.6319 2.34591 -5.4815
head -2.23159 1.22945 -1.96271
lclavicle 2.5842e-15 9.93923e-15 0
lhumerus -55.0286 -12.4539 94.8688
lradius 105.126 0 0
lwrist 37.917 0 0
lhand -39.7517 16.794 0
lfingers 7.12502 0 0
lthumb -12.7285 46.386 0
rclavicle 2.5842e-15 9.93923e-15 0
rhumerus -22.3639 15.303 -84.0766
rradius 98.9212 0 0
rwrist -0.69251 0 0
rhand -43.8087 39.1125 0
rfingers 7.12502 0 0
rthumb -16.637 9.80558 0
133
root 0.694359 17.2242 34.4664 2.10134 -5.15339 -4.44421
lfemur -30.9325 12.5341 -10.4862
ltibia 114.225 0 0
lfoot 16.9958 -9.43178 0
ltoes -13.5716 0 0
rfemur -6.56539 2.62847 31.3591
rtibia 40.1108 0 0
rfoot -17.0069 -6.34697 0
rtoes -13.4134 0 0
lowerback 18.0132 -0.502847 5.32718
upperback 1.56962 0.602339 2.33446
thorax -8.38898 0.138854 -0.65172
lowerneck -6.94339 1.78085 0.875123
upperneck -10.0535 1.99636 -5.06282
head -1.92882 1.04385 -1.74518
lclavicle 8.15017e-15 -3.02153e-14 0
lhumerus -55.5889 -12.513 95.1838
lradius 105.321 0 0
lwrist 38.8664 0 0
lhand -42.4033 23.0132 0
lfingers 7.12502 0 0
lthumb -15.2837 52.4285 0
rclavicle 8.15017e-15 -3.02153e-14 0
rhumerus -21.6139 14.6444 -83.7874
rradius 100.093 0 0
rwrist -0.492737 0 0
rhand -43.8811 39.4452 0
rfingers 7.12502 0 0
rthumb -16.7067 10.1442 0
134
root 0.689797 17.2433 34.9644 2.29651 -4.81453 -5.10269
lfemur -34.2817 11.8543 -10.2456
ltibia 113.594 0 0
lfoot 17.1323 -9.93001 0
ltoes -10.2479 0 0
rfemur -4.47522 2.49131 32.024
rtibia 38.9829 0 0
rfoot -15.7241 -5.97176 0
rtoes -14.8343 0 0
lowerback 17.7437 -0.272126 5.99667
upperback 1.57299 1.02451 2.41627
thorax -8.20575 0.32359 -1.04438
lowerneck -6.9664 1.39934 0.423527
upperneck -10.051 1.55239 -4.41527
head -1.9436 0.828563 -1.45987
lclavicle 6.16232e-15 -4.8901e-14 0
lhumerus -56.1594 -12.6282 95.4759
lradius 105.581 0 0
lwrist 40.0542 0 0
lhand -43.4369 23.8136 0
lfingers 7.12502 0 0
lthumb -16.279 53.1503 0
rclavicle 6.16232e-15 -4.8901e-14 0
rhumerus -21.3618 14.0366 -83.6469
rradius 101.601 0 0
rwrist -0.651907 0 0
rhand -44.0043 39.2737 0
rfingers 7.12502 0 0
rthumb -16.8253 9.98264 0
135
root 0.691605 17.3306 35.4996 2.25505 -3.7279 -5.40249
lfemur -37.0234 9.78526 -10.6801
ltibia 112.015 0 0
lfoot 16.6458 -10.005 0
ltoes -10.2757 0 0
rfemur -1.92966 1.78722 32.2998
rtibia 37.3779 0 0
rfoot -14.04 -5.5038 0
rtoes -16.1559 0 0
lowerback 17.5282 -0.371325 6.64476
upperback 1.40138 1.00944 2.36078
thorax -8.26392 0.288881 -1.46399
lowerneck -6.45871 1.11191 0.0859103
upperneck -10.0406 1.22565 -3.7579
head -2.03795 0.672643 -1.1977
lclavicle 1.18277e-14 2.8625e-14 0
lhumerus -57.1029 -12.425 95.6252
lradius 105.983 0 0
lwrist 40.2251 0 0
lhand -42.1942 25.2421 0
lfingers 7.12502 0 0
lthumb -15.0823 54.6727 0
rclavicle 1.18277e-14 2.8625e-14 0
rhumerus -21.8371 13.5868 -83.7795
rradius 103.275 0 0
rwrist -1.13509 0 0
rhand -44.027 39.1144 0
rfingers 7.12502 0 0
rthumb -16.8472 9.82524 0
